Coordinates
version=1
nRows=7
nColumns=40
inDegrees=yes

Units are S.I. units (second, meters, Newtons, ...)
Angles are in degrees.

endheader
time	pelvis_tilt	pelvis_list	pelvis_rotation	pelvis_tx	pelvis_ty	pelvis_tz	hip_flexion_r	hip_adduction_r	hip_rotation_r	knee_angle_r	knee_angle_r_beta	ankle_angle_r	subtalar_angle_r	mtp_angle_r	hip_flexion_l	hip_adduction_l	hip_rotation_l	knee_angle_l	knee_angle_l_beta	ankle_angle_l	subtalar_angle_l	mtp_angle_l	lumbar_extension	lumbar_bending	lumbar_rotation	arm_flex_r	arm_add_r	arm_rot_r	elbow_flex_r	pro_sup_r	wrist_flex_r	wrist_dev_r	arm_flex_l	arm_add_l	arm_rot_l	elbow_flex_l	pro_sup_l	wrist_flex_l	wrist_dev_l
     23.67000000	     -4.50649644	     -3.77690290	     -0.86051384	      1.05692848	      0.91814581	      0.47795153	     24.65424309	      0.07068802	    -11.52124371	     24.41843800	     24.41843800	      5.93338065	     -5.61003190	     -1.05609434	      4.56272723	     -9.94584113	     -7.69938276	     38.10819541	     38.10819541	     12.37234805	    -11.24164541	    -12.91370127	    -11.23539186	      4.97145664	      1.84261491	    -14.79138319	    -12.55353272	     -4.73284136	     30.29699548	     46.25867590	      0.00000000	      0.00000000	     17.33300768	    -19.70313578	     -4.87271592	     95.10029605	     48.35664634	      0.00000000	      0.00000000
     23.68200000	     -4.57943083	     -3.83615110	     -0.56350751	      1.05679241	      0.91930975	      0.48029208	     23.91468273	      0.20541009	    -11.96682756	     24.05294462	     24.05294462	      6.38303242	     -5.26083361	     -1.20183389	      6.62049975	    -10.38951452	     -6.55030454	     42.06639858	     42.06639858	      9.95637880	    -13.14071816	    -12.82265463	    -11.21746165	      4.96768951	      1.78956222	    -13.78743502	    -12.48411244	     -4.65689336	     30.92930782	     46.23204905	      0.00000000	      0.00000000	     15.94569283	    -19.12858768	     -4.81651825	     93.45548765	     48.31507604	      0.00000000	      0.00000000
     23.69400000	     -4.59683613	     -3.85776422	     -0.28175210	      1.05650697	      0.92041474	      0.48243639	     23.14420960	      0.27244999	    -12.44514834	     23.72913913	     23.72913913	      6.85420840	     -4.75921450	     -1.43329556	      8.73627227	    -10.65392033	     -5.28525708	     46.02767847	     46.02767847	      7.52816182	    -15.11680989	    -12.04907593	    -11.27554298	      4.93662867	      1.74477242	    -12.69383669	    -12.49178848	     -4.59953745	     31.83923283	     46.19444212	      0.00000000	      0.00000000	     14.68849749	    -18.38267651	     -4.92682649	     91.21676809	     48.27347678	      0.00000000	      0.00000000
     23.70600000	     -4.59471782	     -4.03317601	      0.02471055	      1.05604988	      0.92131289	      0.48454320	     22.35355007	      0.51863033	    -12.95363151	     23.37559662	     23.37559662	      7.25027891	     -4.37867432	     -1.59748192	     10.97042721	    -11.11010227	     -4.13357624	     50.00169077	     50.00169077	      5.43478293	    -16.38298737	    -10.86972176	    -11.38673183	      5.03862703	      1.81327953	    -11.56853577	    -12.58922915	     -4.63736172	     32.70446126	     46.16709803	      0.00000000	      0.00000000	     13.43483635	    -17.67003114	     -4.78188348	     89.28610055	     48.22065722	      0.00000000	      0.00000000
     23.71800000	     -4.60099559	     -4.04839064	      0.30961581	      1.05535202	      0.92208598	      0.48635731	     21.65207389	      0.55744828	    -13.43984473	     23.14263366	     23.14263366	      7.65475254	     -3.86787664	     -1.94252952	     13.45938519	    -11.17211100	     -2.82164813	     54.24740902	     54.24740902	      5.73949350	    -16.41998221	     -3.96695020	    -11.46100411	      5.03550700	      2.42420588	    -11.27938896	    -12.78422223	     -4.98448436	     35.33189713	     46.05988404	      0.00000000	      0.00000000	     13.15144106	    -16.48197542	     -4.36547421	     85.26195246	     48.11951793	      0.00000000	      0.00000000
     23.73000000	     -4.62725610	     -4.16998635	      0.62301079	      1.05447775	      0.92266263	      0.48816704	     20.98649499	      0.72216694	    -13.92949620	     22.91275311	     22.91275311	      8.06327001	     -3.44831149	     -2.09581971	     15.87098966	    -11.34033219	     -1.62733334	     57.87350089	     57.87350089	      4.97567565	    -17.03181581	     -0.42509422	    -11.51256020	      5.08376473	      2.63296037	    -10.16258604	    -12.90402856	     -5.43157211	     36.68361608	     46.02749025	      0.00000000	      0.00000000	     12.39458411	    -15.51007361	     -4.35029427	     81.75179566	     48.04999665	      0.00000000	      0.00000000
     23.74200000	     -4.63060193	     -4.34225893	      0.95736321	      1.05339949	      0.92308555	      0.48991498	     20.35133886	      0.96137381	    -14.30723335	     22.74050110	     22.74050110	      8.48115646	     -3.27070142	     -2.15104655	     18.28441698	    -11.52225353	     -0.49644407	     61.18168103	     61.18168103	      4.71015198	    -17.37317524	      3.20789579	    -11.60113053	      5.17558718	      2.80252008	     -8.97464384	    -13.06004240	     -6.05001128	     38.31860729	     45.99352506	      0.00000000	      0.00000000	     11.67125641	    -14.75727979	     -3.97624088	     78.06439266	     47.95389068	      0.00000000	      0.00000000
